#!OML:ASF E:\Style4\Style4.ASF
:FULLY-SPECIFIED
:DEGREES
3455
root -1.47983 17.5652 -0.537164 9.86108 8.61764 -13.1139
lowerback 18.8218 0.817068 -8.55417
upperback 10.6645 -0.236617 -3.15263
thorax 1.06249 -0.38321 1.50904
lowerneck -2.9451 -4.07433 -7.14993
upperneck 5.72374 -3.76838 -21.7573
head 1.94159 -2.48192 -5.5569
rclavicle -1.90833e-014 0
rhumerus -32.7959 21.0942 -98.7817
rradius 61.702
rwrist 3.33981
rhand 0.138326 5.65818
rfingers 7.12502
rthumb 25.7229 -22.6235
lclavicle -1.90833e-014 0
lhumerus -50.5593 -5.8788 85.6986
lradius 79.3314
lwrist 8.80282
lhand -24.9987 31.024
lfingers 7.12502
lthumb 1.51284 60.9984
rfemur -20.5578 -1.56395 40.4282
rtibia 24.875
rfoot -17.1079 -12.0418
rtoes -4.18129
lfemur -33.7593 -10.1902 3.66444
ltibia 45.3382
lfoot -23.0155 14.2802
ltoes -21.8862
3456
root -1.50401 17.5525 -0.524617 9.68462 9.27174 -12.9769
lowerback 18.6552 0.942209 -8.71569
upperback 10.7273 -0.0691095 -3.12512
thorax 1.20747 -0.31194 1.59843
lowerneck -3.21372 -3.882 -7.06156
upperneck 6.37433 -3.29398 -22.224
head 2.21394 -2.33524 -5.73389
rclavicle 3.33958e-014 3.18055e-014
rhumerus -32.7566 21.1007 -98.5694
rradius 61.7765
rwrist 2.99278
rhand 0.244609 5.46292
rfingers 7.12502
rthumb 25.8246 -22.804
lclavicle 3.33958e-014 3.18055e-014
lhumerus -50.2126 -5.89139 85.8149
lradius 79.2639
lwrist 8.98626
lhand -24.6629 30.5235
lfingers 7.12502
lthumb 1.8371 60.4953
rfemur -20.6444 -1.7602 40.4048
rtibia 25.2378
rfoot -17.4213 -12.4743
rtoes -4.12045
lfemur -33.9273 -10.4233 3.64684
ltibia 45.4327
lfoot -22.8514 14.0168
ltoes -22.3522
3457
root -1.52666 17.5343 -0.517065 9.42057 9.89431 -12.8969
lowerback 18.7365 1.07502 -8.7458
upperback 10.7082 0.0916269 -3.15691
thorax 1.13199 -0.226887 1.55377
lowerneck -3.45973 -3.63348 -6.75907
upperneck 7.15417 -2.72318 -22.7451
head 2.52687 -2.15289 -5.96341
rclavicle 3.33958e-014 1.90833e-014
rhumerus -32.8449 20.9772 -98.5092
rradius 61.8398
rwrist 2.68538
rhand 0.363438 5.32711
rfingers 7.12502
rthumb 25.9384 -22.9232
lclavicle 3.33958e-014 1.90833e-014
lhumerus -49.9406 -6.02277 85.8948
lradius 79.1314
lwrist 9.37633
lhand -24.1922 30.3594
lfingers 7.12502
lthumb 2.29175 60.3268
rfemur -20.7194 -1.78837 40.4033
rtibia 25.6421
rfoot -17.708 -13.0566
rtoes -4.00288
lfemur -34.0419 -10.6017 3.67162
ltibia 45.5399
lfoot -22.714 13.6407
ltoes -22.6487
3458
root -1.54492 17.52 -0.499513 9.17938 10.5078 -12.8936
lowerback 18.7086 1.15484 -8.65449
upperback 10.673 0.213558 -3.17978
thorax 1.09485 -0.157267 1.45808
lowerneck -3.59752 -3.39479 -6.71569
upperneck 7.88793 -2.18681 -22.9832
head 2.81744 -1.97725 -6.05723
rclavicle 4.13472e-014 5.725e-014
rhumerus -32.9654 20.8885 -98.5239
rradius 61.8236
rwrist 2.42594
rhand 0.441321 5.23731
rfingers 7.12502
rthumb 26.013 -23.002
lclavicle 4.13472e-014 5.725e-014
lhumerus -49.7242 -5.96816 85.9554
lradius 79.0226
lwrist 9.65056
lhand -23.7093 30.3156
lfingers 7.12502
lthumb 2.75806 60.2775
rfemur -20.7873 -1.87861 40.4756
rtibia 26.0818
rfoot -17.9802 -13.6206
rtoes -4.04716
lfemur -34.1142 -10.7624 3.75933
ltibia 45.634
lfoot -22.7181 13.1506
ltoes -22.3931
3459
root -1.56029 17.5126 -0.473368 8.98615 11.1004 -12.7438
lowerback 18.4905 1.23283 -8.65166
upperback 10.6815 0.345533 -3.22402
thorax 1.20461 -0.0916682 1.38792
lowerneck -3.68715 -3.16544 -6.85001
upperneck 8.63019 -1.66576 -23.0258
head 3.10836 -1.80735 -6.05751
rclavicle -1.59028e-014 4.77083e-014
rhumerus -33.116 20.8484 -98.4467
rradius 61.9155
rwrist 2.12554
rhand 0.590697 5.13154
rfingers 7.12502
rthumb 26.156 -23.0867
lclavicle -1.59028e-014 4.77083e-014
lhumerus -49.5629 -5.91 86.0361
lradius 79.103
lwrist 9.92824
lhand -23.4804 30.5863
lfingers 7.12502
lthumb 2.9792 60.5452
rfemur -20.7678 -2.13525 40.4131
rtibia 26.5525
rfoot -18.3809 -13.9934
rtoes -4.16935
lfemur -34.126 -10.9689 3.66156
ltibia 45.7032
lfoot -22.7389 12.7134
ltoes -22.2666
3460
root -1.57271 17.5026 -0.448005 8.78227 11.5913 -12.5142
lowerback 18.2557 1.34688 -8.73111
upperback 10.6979 0.513988 -3.29
thorax 1.33095 -0.0118189 1.33497
lowerneck -3.85975 -2.90788 -6.91777
upperneck 9.49274 -1.06742 -23.0932
head 3.45745 -1.61763 -6.07848
rclavicle 3.18055e-015 -4.13472e-014
rhumerus -33.2638 20.9094 -98.3479
rradius 62.0302
rwrist 1.74066
rhand 0.643179 4.98092
rfingers 7.12502
rthumb 26.2063 -23.2299
lclavicle 3.18055e-015 -4.13472e-014
lhumerus -49.3748 -5.96214 86.0963
lradius 79.1335
lwrist 10.1526
lhand -23.3601 30.9536
lfingers 7.12502
lthumb 3.09535 60.9109
rfemur -20.7223 -2.30316 40.2406
rtibia 27.0476
rfoot -18.8524 -14.3194
rtoes -3.9736
lfemur -34.0642 -11.1497 3.444
ltibia 45.774
lfoot -22.7244 12.417
ltoes -22.6151
3461
root -1.58131 17.4859 -0.425586 8.47917 11.9805 -12.3887
lowerback 18.106 1.47676 -8.75743
upperback 10.7196 0.700843 -3.31312
thorax 1.4169 0.0788618 1.29508
lowerneck -4.07909 -2.6615 -7.02402
upperneck 10.4406 -0.451288 -23.1626
head 3.84582 -1.43368 -6.09565
rclavicle -4.6118e-014 -7.31528e-014
rhumerus -33.3496 21.0023 -98.3081
rradius 61.9921
rwrist 1.4539
rhand 0.433626 4.94987
rfingers 7.12502
rthumb 26.0056 -23.2906
lclavicle -4.6118e-014 -7.31528e-014
lhumerus -49.1269 -5.96272 86.1138
lradius 78.947
lwrist 10.3346
lhand -23.3162 30.8197
lfingers 7.12502
lthumb 3.13777 60.7763
rfemur -20.6595 -2.30524 40.1336
rtibia 27.6154
rfoot -19.3476 -14.7063
rtoes -3.38841
lfemur -33.8987 -11.2175 3.29142
ltibia 45.8683
lfoot -22.7748 12.0494
ltoes -22.8587
3462
root -1.58657 17.4685 -0.401272 8.17851 12.4079 -12.2807
lowerback 17.9526 1.56583 -8.71221
upperback 10.7244 0.844754 -3.33901
thorax 1.48881 0.152559 1.22052
lowerneck -4.14533 -2.44577 -7.092
upperneck 11.3328 0.0889174 -23.2574
head 4.18397 -1.27211 -6.12482
rclavicle -3.49861e-014 -3.18055e-014
rhumerus -33.3976 20.9715 -98.3582
rradius 61.8332
rwrist 1.29373
rhand -0.141079 5.02256
rfingers 7.12502
rthumb 25.4552 -23.2975
lclavicle -3.49861e-014 -3.18055e-014
lhumerus -48.8741 -5.87142 86.0816
lradius 78.7364
lwrist 10.5587
lhand -23.2554 30.461
lfingers 7.12502
lthumb 3.19642 60.4168
rfemur -20.6447 -2.33007 40.041
rtibia 28.2471
rfoot -19.8864 -15.1325
rtoes -2.92856
lfemur -33.7689 -11.2897 3.15275
ltibia 45.9968
lfoot -22.7856 11.6682
ltoes -23.2083
